<svg xmlns="http://www.w3.org/2000/svg" xml:space="preserve" width="1500" height="1500" data-id="lg_OpQud0fSMucnTXZ0ZK" data-version="1" viewBox="0 0 1500 1500"><path stroke="transparent" d="M0 0h1500v1500H0z"/><g data-padding="20"><g transform="translate(-578.546 -589.247)scale(1.73087)"><rect width="585.995" height="176.28" x="220.224" y="607.233" fill="none" rx="0" ry="0" transform="matrix(.95 0 0 .95 280 84.56)"/><path fill="#fff" d="M507.83 791.735v-6.08q9.187-.874 10.925-2.423 1.739-1.558 2.062-3.515t.323-4.987v-76.855q0-6.147-1.805-7.638-1.805-1.482-4.446-2.024-2.641-.541-7.058-.902v-6.3h42.189v6.223q-8.835.437-10.897 1.88-2.061 1.455-2.64 3.374-.58 1.91-.58 5.102v78.944q0 4.779 4.341 6.147 3.401 1.092 12.778 1.092 9.367 0 14.506-.218t8.76-1.017q3.619-.798 6.003-2.346 2.385-1.558 4.124-4.161 2.46-3.838 5.937-15.856h6.726l-5.567 37.202h-6.222q-.219-2.68-1.777-4.16-1.558-1.483-4.085-1.483Zm118.665-103.21-13.169-13.09 13.167-12.958 12.882 12.958Zm-19.173 103.2v-6.014l2.527-.361q3.116-.428 5.064-.903 1.957-.465 3.04-1.7 1.881-2.242 1.881-10.28V723.41q0-8.246-1.739-9.947-1.729-1.7-4.189-2.137t-6.583-.798v-6.223h39.576v6.223q-4.123.437-6.583.874-2.46.427-3.762 1.662-2.1 1.948-2.1 10.346v49.058q0 8.255 1.302 9.775t3.22 2.024q1.92.503 5.102 1.016l2.821.428v6.013Zm81.113-87.41v15.05q6.593-13.091 23.598-21.708 12.511 6.66 19.247 14.62 10.63 12.807 12.882 38.067.722 8.683.722 16.787t.285 11q.294 2.889 1.235 4.37.94 1.492 2.745 1.958 1.815.475 3.62.76 1.814.294 2.565.323.76.037 1.558.18v6.014h-39.577v-6.014q4.123-.503 6.583-.97 2.46-.474 3.762-1.775 2.1-2.1 2.1-11.647v-8.398q0-16.568-.798-22.981-.798-6.403-1.986-10.564-1.197-4.161-3.22-7.847-3.981-6.944-12.455-13.68-22.866 14.117-22.866 38.209v24.529q0 9.557 1.415 11.438 1.406 1.88 3.506 2.423 2.099.54 5.719 1.054l1.88.209v6.014H661.38v-5.938q.427-.218 1.12-.256.685-.03 2.528-.285 1.843-.257 3.838-.76 1.985-.504 3.078-1.74 1.805-1.956 1.805-9.841V721.32q0-6.584-1.663-8.066-1.662-1.482-4.123-1.957-2.46-.465-6.583-.76v-6.222Zm79.03 87.41v-6.014l2.461-.361q6.593-.864 7.961-2.384 2.033-2.318 2.033-10.498V686.94q0-8.18-1.7-9.842t-4.162-2.138q-2.46-.465-6.593-.826v-6.156h39.663v6.155q-4.133.428-6.593.865t-3.762 1.662q-2.166 1.957-2.166 10.28v85.528q0 8.256 1.34 9.814 1.339 1.548 3.258 2.023 1.91.465 5.168.978l2.755.428v6.014Zm89.88 16.064-57.675-63.11 23.522-22.713 1.881-1.74q.941-.873 1.805-1.737l1.596-1.74q1.587-1.737 1.587-2.858t-.76-1.805-1.985-.98q-2.033-.578-5.643-.578v-6.3h38.351v5.863q-12.017 1.31-19.978 9.338l-22.135 22.43 44.355 61.797Zm76.19-30.98 4.122 4.133q-9.918 12.226-29.744 12.226-19.105 0-29.887-12.378-10.346-11.932-10.346-31.55 0-20.187 11.505-33.354 11.438-13.025 29.307-13.025 13.68 0 21.347 5.786 7.315 5.424 7.315 14.905 0 12.227-11.875 20.625-13.813 9.766-41.819 9.984 2.527 29.602 26.771 29.602 15.2 0 23.303-6.954m-50.293-30.39q25.764-.503 34.875-12.226 3.334-4.342 3.334-10.783 0-8.398-7.239-11.58-2.821-1.226-7.02-1.226t-7.448 1.482q-3.259 1.482-5.862 4.047-2.612 2.574-4.56 6.013-1.957 3.43-3.258 7.41-2.679 8.18-2.822 16.863m128.155-12.663-3.98-3.183q4.056-3.905 4.056-11.866 0-3.904-3.695-6.156-3.107-1.805-9.481-1.805-13.747 0-13.747 8.968v55.005q0 3.107.618 5.13.608 2.033 2.783 3.259 3.762 2.175 17.366 2.603v6.013H956.98v-5.937l.143-.076q8.54-.864 10.241-2.422 1.7-1.56 2.1-3.62.398-2.061.398-5.53v-50.15q0-7.885-1.558-9.766t-3.8-2.612q-2.242-.722-5.937-1.16v-6.146h14.981q8.902 0 12.664-.36 3.762-.362 5.937-.504 6.508-.58 10.602-.58 4.085 0 8.427.646 4.341.656 7.666 2.242 7.315 3.477 7.315 10.783 0 5.86-4.778 10.934-4.484 4.77-9.985 6.29"/><rect width="400.444" height="56.5" x="312.999" y="667.123" fill="none" rx="0" ry="0" transform="matrix(.95 0 0 .95 275.725 198.612)"/><path fill="#fff" d="m610.06 844.595-.998 3.42q-1.52-.997-3.752-1.662t-5.083-.665q-3.182 0-5.367.922-2.185.93-3.534 2.593-1.359 1.662-1.948 4.009-.598 2.356-.598 5.206 0 6.507 2.85 9.833t8.502 3.325q2.993 0 5.51-.856t4.038-2.09l.95 3.183q-1.9 1.14-4.579 2.014-2.689.884-6.061.884-3.895 0-6.745-1.283t-4.722-3.467q-1.88-2.185-2.783-5.064-.903-2.87-.903-6.1 0-3.371.998-6.316.997-2.945 2.973-5.16 1.967-2.203 4.893-3.485 2.916-1.283 6.811-1.283 2.565 0 5.13.542 2.565.55 4.418 1.5m15.304 6.983q2.897 0 4.988.969 2.09.978 3.448 2.612 1.349 1.644 1.995 3.753.637 2.119.637 4.446 0 2.328-.637 4.389-.646 2.07-1.976 3.61-1.33 1.548-3.391 2.45-2.071.904-4.874.904-2.897 0-5.006-.95-2.119-.95-3.496-2.546-1.378-1.587-2.043-3.677t-.665-4.417.665-4.418 2.023-3.686q1.35-1.586 3.44-2.517 2.09-.922 4.892-.922m.143 20.615q1.9 0 3.306-.712 1.396-.713 2.327-1.93.922-1.205 1.349-2.801.428-1.587.428-3.345 0-1.805-.447-3.467-.456-1.662-1.406-2.926-.95-1.254-2.394-2.014-1.453-.76-3.448-.76-1.948 0-3.325.712-1.378.713-2.28 1.9t-1.33 2.775q-.428 1.596-.428 3.353 0 1.805.456 3.468.446 1.662 1.378 2.945.921 1.282 2.374 2.042 1.444.76 3.44.76m35.577 1.947h-3.325V859.7q0-2.85-1.282-4.085t-3.278-1.235q-1.187 0-2.347.38-1.168.38-2.165 1.112-.998.74-1.758 1.805-.76 1.073-1.187 2.45v14.013h-3.325v-21.85h2.612l.38 4.085h.19q.618-1.995 2.755-3.4 2.138-1.397 5.32-1.397 1.52 0 2.879.399 1.349.408 2.346 1.31t1.596 2.376q.589 1.472.589 3.61Zm25.887 0h-3.325V859.7q0-2.85-1.282-4.085t-3.277-1.235q-1.188 0-2.347.38-1.168.38-2.166 1.112-.997.74-1.757 1.805-.76 1.073-1.188 2.45v14.013h-3.325v-21.85h2.613l.38 4.085h.19q.617-1.995 2.755-3.4 2.137-1.397 5.32-1.397 1.52 0 2.878.399 1.349.408 2.347 1.31.997.903 1.596 2.376.589 1.472.589 3.61Zm16.996-22.562q4.18 0 6.46 2.109 2.28 2.119 2.28 5.966 0 .808-.095 1.634-.095.836-.332 1.216h-16.008v.475q0 1.805.475 3.468t1.425 2.944q.95 1.283 2.404 2.043 1.444.76 3.439.76 1.14 0 2.232-.266 1.093-.257 2.09-.665.998-.4 1.853-.874t1.52-.95l.57 2.708q-.618.38-1.52.826-.903.456-1.995.836t-2.394.637q-1.311.266-2.736.266-2.66 0-4.703-.931-2.042-.922-3.42-2.518-1.377-1.586-2.09-3.676t-.712-4.37q0-2.328.741-4.446.731-2.11 2.157-3.724 1.424-1.615 3.543-2.546 2.109-.922 4.816-.922m-.142 2.66q-3.135 0-4.864 1.634-1.739 1.644-2.356 4.114h12.967q.048-.238.048-.428v-.428q0-1.187-.475-2.118-.475-.922-1.283-1.54-.807-.617-1.852-.93-1.045-.304-2.185-.304m32.775-.76-.808 2.803q-1.092-.808-3.135-1.454-2.042-.636-4.085-.636-2.09 0-3.534.712-1.453.712-2.403 1.9t-1.378 2.727q-.427 1.548-.427 3.21 0 1.853.522 3.563t1.549 2.992q1.016 1.283 2.517 2.043 1.492.76 3.487.76 1.9 0 3.923-.807 2.014-.808 3.344-2.043l.665 3.088q-1.33.855-3.629 1.615-2.308.76-4.92.76-2.756 0-4.817-.95-2.071-.95-3.42-2.546-1.359-1.587-2.043-3.705-.693-2.11-.693-4.484 0-2.28.646-4.351.636-2.062 2.014-3.658 1.378-1.586 3.515-2.517 2.137-.922 5.13-.922 2.28 0 4.465.522 2.185.523 3.515 1.378m6.887 16.284v-15.248h-3.657v-1.757l3.752-.475.713-6.603h2.517v6.603h5.13v2.232h-5.13v15.152q0 1.52.456 1.995.447.475 1.397.475 1.092 0 1.947-.332.855-.333 1.52-.808l.665 2.518q-.807.38-2.109.76-1.31.38-2.878.38-1.52 0-2.375-.428-.855-.427-1.282-1.14t-.542-1.596q-.123-.874-.123-1.73m41.657-14.145 11.923-1.757v2.945l-6.365.57q1.472 2.707 1.472 5.605 0 3.087-1.615 5.795l5.225 5.367h-3.99l-3.04-3.087q-1.662 1.662-4.056 2.66-2.404.997-5.444.997-2.707 0-4.769-.74-2.071-.732-3.448-1.996-1.378-1.254-2.062-2.87-.693-1.614-.693-3.324 0-1.282.408-2.64.399-1.35 1.188-2.585.779-1.235 1.995-2.28 1.206-1.045 2.774-1.71-1.378-1.615-2.138-3.23t-.76-3.705q0-1.757.551-3.068.542-1.302 1.52-2.204.969-.903 2.252-1.36 1.282-.445 2.707-.445 1.615 0 3.306.54 1.682.552 3.297 1.55l-.95 3.372q-1.093-1.045-2.613-1.71t-2.945-.665q-1.567 0-2.679.97-1.121.978-1.121 3.258 0 1.567.618 2.85t1.805 2.517l10.83 11.21q.76-1.805.76-3.657 0-1.425-.4-2.69-.408-1.253-1.168-2.44l-2.375.19Zm-5.462 15.96q2.28 0 3.99-.74 1.71-.732 2.945-1.967l-9.88-10.118q-2.233.76-3.534 2.518-1.311 1.757-1.311 4.085 0 1.52.598 2.66.589 1.14 1.615 1.947 1.017.808 2.442 1.207 1.425.408 3.135.408m58.481-26.98-.997 3.42q-1.52-.997-3.753-1.662t-5.082-.665q-3.183 0-5.368.922-2.185.93-3.534 2.593-1.358 1.662-1.947 4.009-.599 2.356-.599 5.206 0 6.507 2.85 9.833t8.503 3.325q2.992 0 5.51-.856t4.037-2.09l.95 3.183q-1.9 1.14-4.579 2.014-2.688.884-6.061.884-3.895 0-6.745-1.283t-4.721-3.467q-1.881-2.185-2.784-5.064-.902-2.87-.902-6.1 0-3.371.997-6.316.998-2.945 2.974-5.16 1.966-2.203 4.892-3.485 2.917-1.283 6.812-1.283 2.565 0 5.13.542 2.565.55 4.417 1.5m18.658 8.076-.998 3.134q-.76-.427-1.52-.693-.76-.257-1.472-.257-.95 0-1.805.523t-1.568 1.425-1.254 2.09q-.551 1.188-.836 2.47v12.777h-3.325v-21.85h2.613l.38 4.798h.19q.332-1.092.883-2.09.542-.997 1.33-1.757.779-.76 1.777-1.216.997-.447 2.28-.447.902 0 1.9.304.997.314 1.424.789m13.5-1.093q4.18 0 6.46 2.109 2.28 2.119 2.28 5.966 0 .808-.095 1.634-.095.836-.332 1.216h-16.008v.475q0 1.805.475 3.468t1.425 2.944q.95 1.283 2.404 2.043 1.444.76 3.439.76 1.14 0 2.232-.266 1.093-.257 2.09-.665.998-.4 1.853-.874t1.52-.95l.57 2.708q-.618.38-1.52.826-.902.456-1.995.836t-2.394.637q-1.311.266-2.736.266-2.66 0-4.702-.931-2.043-.922-3.42-2.518-1.378-1.586-2.09-3.676-.713-2.09-.713-4.37 0-2.328.741-4.446.731-2.11 2.157-3.724 1.425-1.615 3.543-2.546 2.109-.922 4.817-.922m-.143 2.66q-3.135 0-4.864 1.634-1.738 1.644-2.356 4.114h12.968q.047-.238.047-.428v-.428q0-1.187-.475-2.118-.475-.922-1.282-1.54-.808-.617-1.853-.93-1.045-.304-2.185-.304m31.388 19.902h-2.613l-.38-3.895h-.19q-.57.903-1.52 1.71-.95.808-2.109 1.425-1.168.618-2.517.97-1.359.36-2.689.36-3.135 0-4.702-1.833-1.568-1.824-1.568-4.58 0-2.707 1.378-4.322t3.372-2.422q1.995-.808 4.209-1.045 2.204-.237 3.866-.237h2.138v-.57q0-1.806-.494-2.756-.504-.95-1.454-1.615-.807-.522-1.729-.74-.931-.21-2.451-.21-1.995 0-3.515.523t-2.945 1.377l-.76-2.85q3.183-1.852 7.6-1.852 1.758 0 3.325.304 1.568.314 2.755 1.074 1.378.854 2.185 2.422t.808 3.895Zm-11.02-2.232q1.947 0 4.132-1.235t3.563-3.563v-4.417h-.428q-1.947 0-3.895.143t-3.534.712q-1.596.57-2.593 1.634-.998 1.074-.998 2.926t1.026 2.822q1.017.978 2.727.978m19.19-2.146v-15.248h-3.658v-1.757l3.752-.475.713-6.603h2.517v6.603h5.13v2.232h-5.13v15.152q0 1.52.456 1.995.447.475 1.397.475 1.092 0 1.947-.332.855-.333 1.52-.808l.665 2.518q-.807.38-2.109.76-1.31.38-2.878.38-1.52 0-2.375-.428-.855-.427-1.283-1.14t-.541-1.596q-.124-.874-.124-1.73m23.666-18.182q4.18 0 6.46 2.109 2.28 2.119 2.28 5.966 0 .808-.096 1.634-.095.836-.332 1.216h-16.008v.475q0 1.805.475 3.468t1.425 2.944q.95 1.283 2.404 2.043 1.444.76 3.439.76 1.14 0 2.233-.266 1.092-.257 2.09-.665.997-.4 1.852-.874t1.52-.95l.57 2.708q-.617.38-1.52.826-.902.456-1.995.836t-2.394.637q-1.311.266-2.736.266-2.66 0-4.702-.931-2.043-.922-3.42-2.518-1.378-1.586-2.09-3.676-.713-2.09-.713-4.37 0-2.328.741-4.446.732-2.11 2.157-3.724t3.543-2.546q2.109-.922 4.817-.922m-.143 2.66q-3.135 0-4.864 1.634-1.738 1.644-2.356 4.114h12.968q.047-.238.047-.428v-.428q0-1.187-.475-2.118-.475-.922-1.282-1.54-.808-.617-1.853-.93-1.045-.304-2.185-.304"/></g><path fill="transparent" stroke="transparent" stroke-width="1.795" d="M250 548.025h1000v403.95H250z"/></g></svg>